<?xml version="1.0" encoding="utf-8" ?>
<svg baseProfile="full" height="1280" version="1.1" viewBox="0 0 1346 1280" width="1346" xmlns="http://www.w3.org/2000/svg" xmlns:ev="http://www.w3.org/2001/xml-events" xmlns:xlink="http://www.w3.org/1999/xlink"><defs /><path d="M 785.50,0.00 L 788.00,2.50 L 818.00,4.50 L 881.00,17.50 L 953.00,40.50 L 1025.00,72.50 L 1115.50,128.00 L 751.00,129.50 L 703.00,118.50 L 638.00,112.50 L 568.00,114.50 L 492.00,129.50 L 346.50,128.00 L 385.00,101.50 L 437.00,72.50 L 516.00,37.50 L 585.00,16.50 L 645.00,4.50 L 674.00,2.50 L 676.50,0.00 Z M 223.00,293.50 L 193.50,292.00 L 220.50,252.00 L 267.50,198.00 L 298.00,168.50 L 382.50,169.00 L 302.00,219.50 L 260.00,255.50 L 223.00,293.50 Z M 1269.00,294.50 L 1022.00,294.50 L 986.00,257.50 L 943.00,220.50 L 891.00,185.50 L 861.50,170.00 L 1167.00,169.50 L 1220.50,230.00 L 1270.50,293.00 L 1269.00,294.50 Z M 641.00,358.50 L 637.50,335.00 L 641.50,310.00 L 664.50,238.00 L 662.00,235.50 L 654.50,243.00 L 639.50,266.00 L 618.00,318.50 L 573.50,248.00 L 557.50,209.00 L 557.50,203.00 L 568.00,190.50 L 620.00,174.50 L 663.00,173.50 L 689.00,177.50 L 712.00,189.50 L 721.50,200.00 L 727.50,213.00 L 730.50,233.00 L 688.50,305.00 L 657.50,348.00 L 641.00,358.50 Z M 609.00,429.50 L 576.50,390.00 L 560.50,350.00 L 536.00,319.50 L 531.00,316.50 L 527.50,320.00 L 529.00,326.50 L 495.00,321.50 L 468.00,311.50 L 444.50,297.00 L 452.50,281.00 L 480.50,258.00 L 477.00,254.50 L 462.00,256.50 L 440.00,266.50 L 429.50,276.00 L 423.00,287.50 L 368.00,262.50 L 343.50,255.00 L 399.00,221.50 L 445.00,205.50 L 488.00,197.50 L 513.00,201.50 L 529.00,208.50 L 541.50,219.00 L 561.50,250.00 L 570.50,273.00 L 601.50,325.00 L 618.50,366.00 L 621.50,393.00 L 609.00,429.50 Z M 646.00,461.50 L 639.50,434.00 L 640.50,411.00 L 645.50,396.00 L 667.50,367.00 L 719.50,281.00 L 754.00,241.50 L 776.00,228.50 L 811.00,227.50 L 852.00,242.50 L 878.50,262.00 L 875.50,273.00 L 860.50,295.00 L 836.00,318.50 L 805.00,337.50 L 764.00,340.50 L 735.50,333.00 L 771.00,293.50 L 788.50,281.00 L 786.00,278.50 L 751.00,300.50 L 725.50,327.00 L 705.50,360.00 L 695.50,409.00 L 689.50,425.00 L 666.00,449.50 L 646.00,461.50 Z M 721.00,978.50 L 685.50,931.00 L 645.50,855.00 L 605.50,731.00 L 559.50,628.00 L 528.50,578.00 L 485.50,524.00 L 472.50,501.00 L 465.50,477.00 L 463.50,452.00 L 465.50,432.00 L 473.50,403.00 L 471.00,400.50 L 466.50,405.00 L 455.50,425.00 L 440.00,484.50 L 421.50,466.00 L 405.50,442.00 L 382.50,381.00 L 361.00,347.50 L 355.00,369.50 L 325.00,374.50 L 286.00,370.50 L 267.50,353.00 L 261.50,339.00 L 264.50,318.00 L 278.00,300.50 L 318.00,269.50 L 334.00,263.50 L 359.00,268.50 L 440.00,321.50 L 466.00,333.50 L 521.00,349.50 L 541.00,360.50 L 557.50,376.00 L 577.50,415.00 L 607.50,487.00 L 610.50,533.00 L 601.50,573.00 L 599.00,575.50 L 576.00,556.50 L 539.50,513.00 L 516.50,465.00 L 508.00,432.50 L 503.50,440.00 L 501.50,459.00 L 503.50,484.00 L 514.50,512.00 L 585.50,607.00 L 633.00,681.50 L 645.50,648.00 L 669.50,607.00 L 716.50,559.00 L 736.50,531.00 L 761.50,471.00 L 769.50,433.00 L 801.00,424.50 L 803.50,427.00 L 793.50,448.00 L 785.50,499.00 L 775.50,528.00 L 758.50,551.00 L 706.50,604.00 L 686.50,639.00 L 677.50,671.00 L 672.50,741.00 L 679.50,812.00 L 692.50,873.00 L 720.50,968.00 L 721.00,978.50 Z M 653.00,582.50 L 647.50,533.00 L 652.50,502.00 L 661.50,488.00 L 690.50,463.00 L 706.50,441.00 L 717.50,416.00 L 723.50,379.00 L 731.00,364.50 L 787.00,365.50 L 812.00,359.50 L 848.00,338.50 L 886.00,301.50 L 910.00,295.50 L 921.00,284.50 L 927.00,285.50 L 968.00,317.50 L 993.50,344.00 L 1009.50,374.00 L 986.00,383.50 L 965.00,402.50 L 953.00,407.50 L 935.00,407.50 L 924.00,403.50 L 913.50,394.00 L 902.00,369.50 L 885.00,367.50 L 879.50,373.00 L 852.50,424.00 L 838.50,474.00 L 824.00,489.50 L 813.50,478.00 L 809.50,460.00 L 808.50,434.00 L 813.50,412.00 L 810.00,409.50 L 792.00,414.50 L 769.00,413.50 L 748.50,439.00 L 726.50,495.00 L 710.50,523.00 L 689.50,549.00 L 653.00,582.50 Z M 1345.00,459.50 L 1120.00,459.50 L 1087.50,389.00 L 1052.50,335.00 L 1291.00,333.50 L 1314.50,382.00 L 1345.00,456.50 Z M 4.00,408.50 L 2.50,347.00 L 8.00,338.50 L 112.00,335.50 L 177.50,337.00 L 174.00,343.50 L 146.00,341.50 L 124.00,345.50 L 118.00,342.50 L 82.00,345.50 L 78.00,341.50 L 33.00,341.50 L 17.00,344.50 L 13.00,341.50 L 5.50,353.00 L 4.00,408.50 Z M 827.00,1118.50 L 799.00,1118.50 L 768.00,1112.50 L 741.00,1102.50 L 718.00,1089.50 L 690.00,1067.50 L 666.50,1044.00 L 621.50,986.00 L 589.50,938.00 L 574.50,908.00 L 563.50,871.00 L 557.50,835.00 L 554.50,760.00 L 548.50,726.00 L 535.50,694.00 L 513.00,665.50 L 471.00,636.50 L 422.00,617.50 L 397.00,613.50 L 336.00,616.50 L 301.00,609.50 L 264.00,590.50 L 242.00,573.50 L 224.50,555.00 L 189.50,504.00 L 172.50,472.00 L 173.50,457.00 L 184.50,430.00 L 203.50,398.00 L 216.00,384.50 L 226.00,377.50 L 241.00,375.50 L 267.00,390.50 L 280.00,394.50 L 311.00,395.50 L 347.00,391.50 L 356.00,394.50 L 364.50,402.00 L 377.50,422.00 L 398.50,479.00 L 385.00,483.50 L 360.00,481.50 L 318.00,468.50 L 306.00,461.50 L 302.50,464.00 L 320.00,483.50 L 341.00,498.50 L 364.00,505.50 L 407.00,506.50 L 420.00,509.50 L 449.00,525.50 L 466.50,541.00 L 440.00,545.50 L 384.00,561.50 L 349.00,562.50 L 322.00,556.50 L 295.00,545.50 L 257.00,517.50 L 254.50,520.00 L 258.50,528.00 L 279.50,554.00 L 304.00,573.50 L 327.00,584.50 L 357.00,592.50 L 383.00,592.50 L 467.00,567.50 L 488.00,567.50 L 498.50,574.00 L 529.50,618.00 L 569.50,695.00 L 590.50,747.00 L 615.50,831.00 L 639.50,898.00 L 686.50,996.00 L 715.50,1039.00 L 748.00,1072.50 L 773.00,1091.50 L 803.00,1107.50 L 827.00,1115.50 L 827.00,1118.50 Z M 907.00,658.50 L 855.00,657.50 L 827.50,649.00 L 875.00,629.50 L 910.00,626.50 L 934.00,616.50 L 957.50,596.00 L 968.50,581.00 L 966.00,578.50 L 929.00,591.50 L 897.00,595.50 L 879.00,594.50 L 862.00,590.50 L 787.50,560.00 L 804.00,547.50 L 816.00,542.50 L 867.00,551.50 L 904.00,548.50 L 927.00,535.50 L 960.50,498.00 L 952.00,479.50 L 927.00,509.50 L 913.00,519.50 L 896.00,525.50 L 865.00,524.50 L 834.00,510.50 L 832.50,506.00 L 850.50,490.00 L 861.50,473.00 L 876.00,421.50 L 947.00,429.50 L 974.00,412.50 L 980.00,412.50 L 992.00,420.50 L 1007.00,422.50 L 1016.00,422.50 L 1026.00,417.50 L 1036.50,430.00 L 1057.50,477.00 L 1064.50,504.00 L 1064.50,518.00 L 1052.50,532.00 L 1028.50,587.00 L 1006.00,615.50 L 968.00,641.50 L 945.00,650.50 L 907.00,658.50 Z M 55.00,459.50 L 42.00,458.50 L 39.00,453.50 L 30.00,450.50 L 14.00,451.50 L 10.50,446.00 L 30.00,446.50 L 33.00,449.50 L 63.00,446.50 L 61.50,452.00 L 64.00,454.50 L 97.00,454.50 L 99.50,457.00 L 55.00,459.50 Z M 91.00,625.50 L 16.00,625.50 L 4.50,621.00 L 1.50,549.00 L 2.50,504.00 L 5.00,500.50 L 107.50,501.00 L 97.50,552.00 L 91.00,625.50 Z M 327.00,785.50 L 247.00,754.50 L 186.00,738.50 L 174.00,731.50 L 157.50,714.00 L 146.50,690.00 L 139.50,654.00 L 129.50,634.00 L 126.50,609.00 L 129.50,559.00 L 136.50,535.00 L 146.00,520.50 L 157.00,519.50 L 169.50,530.00 L 194.50,573.00 L 224.00,604.50 L 256.00,625.50 L 291.50,641.00 L 273.00,651.50 L 237.00,658.50 L 234.50,661.00 L 237.00,663.50 L 312.00,669.50 L 313.50,671.00 L 295.50,687.00 L 297.00,692.50 L 319.00,685.50 L 355.00,660.50 L 372.00,653.50 L 392.00,650.50 L 428.00,656.50 L 449.50,676.00 L 450.50,692.00 L 447.00,699.50 L 404.00,722.50 L 376.00,750.50 L 327.00,785.50 Z M 931.00,807.50 L 925.00,807.50 L 907.00,795.50 L 837.00,722.50 L 803.00,694.50 L 790.50,688.00 L 815.00,686.50 L 850.00,695.50 L 921.00,725.50 L 955.00,746.50 L 957.50,744.00 L 952.50,736.00 L 909.50,694.00 L 974.00,703.50 L 1013.00,701.50 L 1015.50,699.00 L 1004.00,691.50 L 953.50,676.00 L 1001.00,658.50 L 1043.00,656.50 L 1045.50,654.00 L 1043.50,651.00 L 1023.50,637.00 L 1035.50,624.00 L 1049.50,586.00 L 1067.00,565.50 L 1076.00,561.50 L 1081.50,574.00 L 1086.50,606.00 L 1084.50,650.00 L 1073.50,689.00 L 1048.50,740.00 L 1045.50,763.00 L 1033.00,774.50 L 1012.00,769.50 L 1002.00,770.50 L 948.00,801.50 L 931.00,807.50 Z M 706.00,702.50 L 708.50,659.00 L 714.50,637.00 L 730.50,607.00 L 753.00,583.50 L 771.00,576.50 L 785.00,578.50 L 835.50,606.00 L 832.00,609.50 L 804.00,615.50 L 770.00,634.50 L 737.50,664.00 L 706.00,702.50 Z M 0.00,665.50 L 7.00,661.50 L 89.50,663.00 L 97.50,737.00 L 109.50,787.00 L 7.00,787.50 L 0.00,782.50 Z M 424.00,810.50 L 379.00,807.50 L 333.50,792.00 L 375.00,763.50 L 405.00,733.50 L 424.00,720.50 L 475.00,696.50 L 495.00,694.50 L 508.00,699.50 L 518.50,714.00 L 521.50,728.00 L 517.50,749.00 L 507.50,769.00 L 492.00,784.50 L 468.00,798.50 L 424.00,810.50 Z M 831.00,821.50 L 784.00,819.50 L 758.00,808.50 L 745.00,799.50 L 717.50,768.00 L 705.50,734.00 L 724.00,717.50 L 751.00,705.50 L 773.00,706.50 L 784.00,714.50 L 788.00,712.50 L 803.00,717.50 L 830.00,733.50 L 866.50,767.00 L 891.50,798.00 L 889.00,802.50 L 873.00,810.50 L 831.00,821.50 Z M 1087.00,953.50 L 918.00,953.50 L 823.00,951.50 L 821.50,949.00 L 856.50,917.00 L 874.50,891.00 L 901.50,839.00 L 909.00,830.50 L 918.00,826.50 L 1342.50,828.00 L 1314.50,901.00 L 1287.00,952.50 L 1087.00,953.50 Z M 0.00,835.50 L 5.00,829.50 L 16.00,827.50 L 64.50,829.00 L 16.00,830.50 L 13.50,833.00 L 15.50,878.00 L 12.00,881.50 L 8.00,878.50 L 5.50,881.00 L 4.50,912.00 L 7.00,914.50 L 10.00,911.50 L 11.50,918.00 L 4.50,920.00 L 4.50,942.00 L 11.00,946.50 L 29.50,950.00 L 12.00,950.50 L 0.00,942.50 Z M 7.50,841.00 L 9.50,838.00 L 7.00,835.50 L 4.50,839.00 L 7.50,841.00 Z M 728.00,1122.50 L 405.50,1121.00 L 456.00,1083.50 L 491.50,1042.00 L 524.50,977.00 L 548.00,911.50 L 579.50,969.00 L 631.50,1039.00 L 672.00,1079.50 L 708.00,1107.50 L 726.00,1117.50 L 728.00,1122.50 Z M 386.00,1119.50 L 307.00,1119.50 L 263.50,1078.00 L 196.50,994.00 L 226.00,993.50 L 252.00,1020.50 L 293.00,1055.50 L 350.00,1095.50 L 386.00,1115.50 L 386.00,1119.50 Z M 1151.00,1122.50 L 866.00,1119.50 L 857.50,1117.00 L 898.00,1094.50 L 943.00,1063.50 L 984.00,1028.50 L 1015.00,996.50 L 1260.00,997.50 L 1261.50,1000.00 L 1252.50,1013.00 L 1207.50,1070.00 L 1177.00,1101.50 L 1151.00,1122.50 Z M 660.50,1279.00 L 658.00,1276.50 L 588.00,1265.50 L 509.00,1241.50 L 471.00,1225.50 L 411.00,1194.50 L 354.50,1158.00 L 1107.50,1158.00 L 1041.00,1201.50 L 976.00,1233.50 L 888.00,1262.50 L 801.50,1279.00 Z" fill="#0AA6A6" fill-rule="evenodd" stroke="none" /></svg>